<svg width="512" height="512" viewBox="0 0 512 512" xmlns="http://www.w3.org/2000/svg" role="img" aria-label="ClipForge">
  <rect width="512" height="512" rx="112" fill="#f6f7f9"/>
  <g fill="none" stroke="#111827" stroke-width="18" stroke-linecap="round" stroke-linejoin="round">
    <path d="M122 394C156 284 235 201 354 118"/>
    <path d="M163 378C170 305 205 253 258 223"/>
    <path d="M215 343C229 283 268 236 325 205"/>
  </g>
  <g fill="#111827">
    <path d="M163 310c-33-7-55-34-58-72 39 0 68 19 82 55-6 8-14 14-24 17Z"/>
    <path d="M195 258c-28-18-38-51-27-87 36 13 58 40 61 78-9 6-20 9-34 9Z"/>
    <path d="M247 222c-23-23-27-57-10-90 33 20 49 52 44 89-10 4-21 5-34 1Z"/>
    <path d="M301 188c-15-29-10-63 17-91 27 28 35 63 21 98-11 1-24-1-38-7Z"/>
    <path d="M198 340c8-35 36-58 75-61-3 40-26 70-62 81-7-5-12-12-13-20Z"/>
    <path d="M250 299c12-34 43-54 82-52-7 39-34 66-72 73-6-5-10-12-10-21Z"/>
    <path d="M303 253c15-31 48-48 86-42-12 37-42 61-80 64-5-6-7-13-6-22Z"/>
  </g>
</svg>
